<svg xmlns="http://www.w3.org/2000/svg" version="1.0" viewBox="0 0 112 145"><path fill="#004080" fill-opacity=".9" d="M39.4 5.2c-1.9 2.3-1.9 2.3.2.5 1.1-.9 2.4-1.4 2.9-1 .4.5.5.2.1-.5-.9-1.6-1-1.6-3.2 1m-4.5.5c-1.3 1.7-1.3 1.7.6.3 1.1-.8 2.2-1.6 2.4-1.7q.3-.3-.6-.3c-.6 0-1.7.8-2.4 1.7M71 4.4c0 .2.8 1 1.8 1.7 1.5 1.3 1.6 1.2.3-.4S71 3.6 71 4.4m3.1-.1c.2.1 1.3.9 2.4 1.7 1.9 1.4 1.9 1.4.6-.3-.7-.9-1.8-1.7-2.4-1.7q-.9 0-.6.3M48.7 8.5c-.6 1.5 1 3.2 2 2.1.4-.3.1-.6-.5-.6s-.9-.7-.6-1.5c.4-.8.4-1.5.1-1.5s-.7.7-1 1.5m13.6-.3c.3.9.1 1.9-.6 2.2-.9.3-.9.5 0 .5 1.8.1 2.3-1.3 1.1-2.9-.8-1.2-.9-1.2-.5.2M23 8.9c0 .6.4 1.3 1 1.6s.7-.1.4-.9c-.7-1.8-1.4-2.1-1.4-.7m64.6.8c-.6 1.4-.5 1.5.5.6.7-.7 1-1.5.7-1.8s-.9.2-1.2 1.2m-49 2.5c.3.5 1 .6 1.5.3 1.3-.9 1.1-1.2-.6-1.2-.8 0-1.2.4-.9.9m33 0c.3.5 1 .6 1.5.3 1.3-.9 1.1-1.2-.6-1.2-.8 0-1.2.4-.9.9M43 16c-.9.6-1 1-.3 1 .6 0 1.5-.5 1.8-1 .8-1.2.4-1.2-1.5 0m24.7.1c.7.7 1.5 1 1.8.7s-.2-.9-1.2-1.2c-1.4-.6-1.5-.5-.6.5m-35.4 5.6c0 .7.4 1.3.8 1.3s.9-.6 1.2-1.3c.3-.8 0-1.4-.7-1.4s-1.3.6-1.3 1.4m45.4 0c.3.7.8 1.3 1.2 1.3s.8-.6.8-1.3c0-.8-.6-1.4-1.3-1.4s-1 .6-.7 1.4m-61 2.3c-.3 1.1-.3 2-.1 2s.8-.9 1.4-2 .7-2 .2-2c-.6 0-1.2.9-1.5 2M94 24c.6 1.1 1.2 2 1.4 2s.2-.9-.1-2-.9-2-1.5-2c-.5 0-.4.9.2 2m-1.8 1.5c.2 1.2-.2 1.9-.9 1.7-1.8-.3-1.6 1.5.1 2.1 1.7.7 2.7-2.5 1.4-4.4-.7-1.1-.8-.9-.6.6m-73.5 2.4c.5 2 3.3 1.9 3.3-.2 0-.6-.3-.7-.7-.4-.3.4-1.2.2-1.9-.4-.9-.8-1.1-.5-.7 1M4.7 31c-.3 1.3-.4 2.6-.2 2.9.3.2.5-.1.5-.7s.8-.9 1.8-.6c1 .4 1.3.3.6-.3-.6-.4-1.3-1.5-1.6-2.3-.3-1-.7-.7-1.1 1m101.3-.8c0 .9-.6 1.9-1.2 2.1q-1.5.6 0 .6c1.4.1 2.8-2.6 1.8-3.6-.3-.4-.6.1-.6.9m-95.3 2.9c.4 1.3.8 1.8 1.1 1 .2-.7-.1-1.8-.6-2.3-.8-.8-.9-.4-.5 1.3m66.6-.1c-.1 1.1.2 2.2.6 2.4.4.3.7-.4.6-1.4-.2-2.7-1-3.3-1.2-1m-4.5 2.7c.7.3 1.6.2 1.9-.1.4-.3-.2-.6-1.3-.5-1.1 0-1.4.3-.6.6M4.6 38.2c.3.5 1 .6 1.5.3 1.3-.9 1.1-1.2-.6-1.2-.8 0-1.2.4-.9.9m35.1-.1c.7.7 1.5 1 1.8.7s-.2-.9-1.2-1.2c-1.4-.6-1.5-.5-.6.5m65.9.1c.3.5 1 .6 1.5.3 1.3-.9 1.1-1.2-.6-1.2-.8 0-1.2.4-.9.9m-90.3.5c-.7.2-1.3 1.3-1.3 2.4 0 1.3.5 1.7 1.7 1.2 1.1-.4 1.3-.8.5-1.1-1-.3-1-.7-.1-1.8 1.2-1.5 1.1-1.5-.8-.7m80.6.7c.9 1.1.9 1.5-.1 1.8-.8.3-.6.7.5 1.1 1.2.5 1.7.1 1.7-1.2 0-1-.7-2.2-1.6-2.5-1.4-.5-1.5-.4-.5.8m-51 .8c1.4 1.9 3.2 1.5 3-.5 0-.8-.2-.8-.6.1-.4 1-.8 1-2.1 0-1.5-1.2-1.6-1.1-.3.4M11 42.5c-.7.9-1.1 1.7-.9 2 .3.2 1-.5 1.7-1.5 1.4-2.4 1-2.6-.8-.5m89.1.2c.7 1.2 1.5 2 1.8 1.7.3-.2-.3-1.2-1.3-2.2-1.7-1.6-1.8-1.6-.5.5m9.5 1c-.6 1.4-.5 1.5.5.6.7-.7 1-1.5.7-1.8s-.9.2-1.2 1.2m-93.1.3c-.3.6.1.7.9.4 1.8-.7 2.1-1.4.7-1.4-.6 0-1.3.4-1.6 1m76.5-.6c0 .2.7.7 1.6 1 .8.3 1.2.2.9-.4-.6-1-2.5-1.4-2.5-.6M.7 47.1c.4 1.3.8 1.8 1.1 1 .2-.7-.1-1.8-.6-2.3-.8-.8-.9-.4-.5 1.3m109.6-.6c-.3.9-.3 1.8-.1 2.1.3.3.8-.4 1.1-1.6.6-2.3-.1-2.7-1-.5M12 52.1c0 .5.5.7 1 .4.6-.3 1-.8 1-1.1 0-.2-.4-.4-1-.4-.5 0-1 .5-1 1.1m86.5-.1c.3.5.8 1 1.1 1 .2 0 .4-.5.4-1 0-.6-.5-1-1.1-1-.5 0-.7.4-.4 1M7.3 56c0 2.5.2 3.5.4 2.2.2-1.2.2-3.2 0-4.5-.2-1.2-.4-.2-.4 2.3m33.3-2.7c.3 1 .9 1.5 1.2 1.2s0-1.1-.7-1.8c-1-.9-1.1-.8-.5.6M59 53c-.9.6-1 1-.3 1 .6 0 1.5-.5 1.8-1 .8-1.2.4-1.2-1.5 0m45.3 3c0 2.5.2 3.5.4 2.2.2-1.2.2-3.2 0-4.5-.2-1.2-.4-.2-.4 2.3m-90.9-.8-1.9 2.3 2.3-1.9c1.2-1.1 2.2-2.1 2.2-2.3 0-.8-.8-.2-2.6 1.9m84.1-.2c1 1.1 2 2 2.2 2s-.2-.9-.9-2-1.7-2-2.2-2-.1.9.9 2M14 59c-.8.5-1 1-.5 1 .6 0 1.7-.5 2.5-1s1.1-1 .5-1c-.5 0-1.7.5-2.5 1m82 0c.8.5 2 1 2.5 1 .6 0 .3-.5-.5-1s-1.9-1-2.5-1c-.5 0-.3.5.5 1M3 60.1c0 .5.4.8.9.4.6-.3 1.4.3 2 1.2.6 1 1.1 1.3 1.1.7C7 61.2 5 59 3.8 59c-.4 0-.8.5-.8 1.1m103.2.1c-.7.7-1.2 1.7-1.2 2.2 0 .6.5.3 1.1-.7.6-.9 1.4-1.5 2-1.2.5.4.9.1.9-.4 0-1.4-1.3-1.4-2.8.1m-89.9 1.3c0 .8.4 1.2.9.9s.6-1 .3-1.5c-.9-1.3-1.2-1.1-1.2.6m78.2-.6c-.3.5-.2 1.2.3 1.5s.9-.1.9-.9c0-1.7-.3-1.9-1.2-.6m-45 3.1c.3.5 1.1 1 1.6 1 .6 0 .7-.5.4-1-.3-.6-1.1-1-1.6-1-.6 0-.7.4-.4 1m-45.7.7c.7.3 1.6.2 1.9-.1.4-.3-.2-.6-1.3-.5-1.1 0-1.4.3-.6.6m11.5.8c0 .8.4 1.2.9.9s.6-1 .3-1.5c-.9-1.3-1.2-1.1-1.2.6m80.4-.9c-.8.8.3 3.4 1.5 3.4.7 0 .6-.5-.1-1.3-.6-.8-.8-1.7-.4-2 .3-.4.4-.7.1-.7-.2 0-.7.3-1.1.6m11.1.1c.7.3 1.6.2 1.9-.1.4-.3-.2-.6-1.3-.5-1.1 0-1.4.3-.6.6M38 66.9c-.8.6-1.8.7-2.2.5-.4-.3-.5.2-.2 1 .5 1.4.8 1.4 2.1.1.8-.9 1.9-1.2 2.5-.9.7.4.8.2.4-.4-.9-1.4-.7-1.4-2.6-.3M16.3 70c-1.1 1.6-1 1.8.2 1.4 1.1-.5 1.5.2 1.6 2.7.1 3.2.2 3.1 1-1 .5-2.5.6-4.7.4-5-.3-.2-.5.4-.6 1.5 0 1.7-.1 1.7-.7.2-.7-1.7-.8-1.6-1.9.2m76.4 1.5c.7 4.9 1.3 5.8 1.3 2.1 0-2.1.4-2.7 1.5-2.2 1.2.4 1.3.2.2-1.4-1.1-1.8-1.2-1.9-1.8-.2-.6 1.5-.7 1.5-1.2-.3-.3-1.1-.3-.2 0 2m-89.5.6c.2.6.8 1 1.3 1s1.1-.4 1.3-1S5.4 71 4.5 71s-1.5.5-1.3 1.1m3.5.3c-.3.8.2 2 1.1 2.7 1.4 1.1 1.5 1.1.5 0-.6-.7-.9-2-.6-2.7.3-.8.3-1.4 0-1.4s-.7.6-1 1.4m97.6 0c.3.7 0 2-.6 2.7-1 1.1-.9 1.1.5 0 1.5-1.1 1.5-4.1.1-4.1-.3 0-.3.6 0 1.4m1.9-.3c.2.6.8 1 1.3 1s1.1-.4 1.3-1-.4-1.1-1.3-1.1-1.5.5-1.3 1.1m-94.5 1.4c.3.8.9 1.2 1.4.9 1.2-.7 1.1-1.1-.5-1.7-1-.4-1.3-.1-.9.8m27.8-.4c-.4.6-.5 1.2-.2 1.5.2.3.7-.2 1-1.1.7-1.7.1-2-.8-.4M99 73c-.9.6-1 1-.3 1 .6 0 1.5-.5 1.8-1 .8-1.2.4-1.2-1.5 0m-85.4 4.5c.4.8 1.3 1.5 2.1 1.5 1.2 0 1.2-.2-.1-1.5-.8-.8-1.7-1.5-2-1.5s-.3.7 0 1.5m82.6 0c-1 1.2-1 1.5.2 1.5.7 0 1.6-.7 2-1.5.7-1.9-.5-1.9-2.2 0m-83.5 3.6c1 1.2.9 2-.3 3.7-1.3 1.8-1.3 2.1 0 1.6 2.1-.8 2.6-4.2.7-5.6-1.4-1.1-1.4-1.1-.4.3m85.6 0c-1.4 1.4-.6 4.6 1.3 5.3 1.3.5 1.3.2 0-1.6-1.1-1.6-1.3-2.5-.4-3.5 1.3-1.6.6-1.7-.9-.2m-70.8.9c-.3.5-.1 1 .4 1 .6 0 1.1-.5 1.1-1 0-.6-.2-1-.4-1-.3 0-.8.4-1.1 1M83 82c0 .5.5 1 1.1 1 .5 0 .7-.5.4-1-.3-.6-.8-1-1.1-1-.2 0-.4.4-.4 1M8.5 83c-1.6.7-1.7.9-.3.9.9.1 2-.4 2.3-.9.7-1.1.7-1.1-2 0m93.3.2c.5.5 1.6.8 2.3.6.8-.3.3-.7-1-1.1-1.7-.4-2.1-.3-1.3.5m-59.6 5.1c1 .8 1.5 1.6 1.2 1.9-.2.3.5.8 1.6 1.1 1.8.5 1.9.3.9-.9-.7-.8-2.2-2-3.3-2.5-1.9-.9-1.9-.9-.4.4m25.1 1.1c-2.6 2.3-2.6 2.5-.5 1.9 1.2-.3 2-.8 1.8-1.1-.3-.3.2-1.1 1.2-1.8.9-.7 1.4-1.4 1-1.4s-2 1.1-3.5 2.4m-28.1 1.7c-1.9.7-2.3 2.9-.6 2.9.3 0 .2-.5-.1-1-.3-.6.1-1 .9-1s1.8-.5 2.1-1c.7-1.2.7-1.2-2.3.1m31.4 0c.3.5 1.2.9 2 .9.9 0 1.2.5.8 1.2s-.3.8.5.4c1.5-1 .7-2.2-1.9-2.9-1.1-.3-1.8-.1-1.4.4m-24 3.6c-.6 1.4-.5 1.5.5.6.7-.7 1-1.5.7-1.8s-.9.2-1.2 1.2m17.4-.8c0 .6.4 1.3 1 1.6s.7-.1.4-.9c-.7-1.8-1.4-2.1-1.4-.7m-5.5 7.1c-.3.5-.1 1 .4 1 .6 0 1.1-.5 1.1-1 0-.6-.2-1-.4-1-.3 0-.8.4-1.1 1m-12 7c-.3.5-.1 1 .4 1 .6 0 1.1-.5 1.1-1 0-.6-.2-1-.4-1-.3 0-.8.4-1.1 1"/><path fill="#004080" fill-opacity=".3" d="M24.6 15.2c.3.5 1 .6 1.5.3 1.3-.9 1.1-1.2-.6-1.2-.8 0-1.2.4-.9.9M65 33.9c0 .5.7 1.2 1.6 1.5 1.4.5 1.5.4.4-.9-1.4-1.7-2-1.9-2-.6m-54.5 4c-.3.5-.2 1.2.3 1.5s.9-.1.9-.9c0-1.7-.3-1.9-1.2-.6m97.6 14.7c0 1.1.3 1.4.6.6.3-.7.2-1.6-.1-1.9-.3-.4-.6.2-.5 1.3M17.2 75c0 1.4.2 1.9.5 1.2.2-.6.2-1.8 0-2.5-.3-.6-.5-.1-.5 1.3m77 0c0 1.4.2 1.9.5 1.2.2-.6.2-1.8 0-2.5-.3-.6-.5-.1-.5 1.3m-71.7 2.1c-.4.6-.5 1.2-.2 1.5.2.3.7-.2 1-1.1.7-1.7.1-2-.8-.4m15.3 28.6c.7.3 1.6.2 1.9-.1.4-.3-.2-.6-1.3-.5-1.1 0-1.4.3-.6.6"/><path fill="#004080" fill-opacity=".5" d="M84.5 12c-.3.6.1.7.9.4 1.8-.7 2.1-1.4.7-1.4-.6 0-1.3.4-1.6 1m-68.9 7.7c-.6 1.4-.5 1.5.5.6.7-.7 1-1.5.7-1.8s-.9.2-1.2 1.2M14 26c0 .5.5 1 1.1 1 .5 0 .7-.5.4-1-.3-.6-.8-1-1.1-1-.2 0-.4.4-.4 1m82.5 0c-.3.5-.1 1 .4 1 .6 0 1.1-.5 1.1-1 0-.6-.2-1-.4-1-.3 0-.8.4-1.1 1M49.8 39.7c.7.3 1.6.2 1.9-.1.4-.3-.2-.6-1.3-.5-1.1 0-1.4.3-.6.6m12 8c.7.3 1.6.2 1.9-.1.4-.3-.2-.6-1.3-.5-1.1 0-1.4.3-.6.6m15.7 5.2c-.3.5-.2 1.2.3 1.5s.9-.1.9-.9c0-1.7-.3-1.9-1.2-.6m28.1 5.4c.3 1 .9 1.5 1.2 1.2s0-1.1-.7-1.8c-1-.9-1.1-.8-.5.6m-55.3 7.4c.9.2 2.5.2 3.5 0 .9-.3.1-.5-1.8-.5s-2.7.2-1.7.5m33.3 14.1c-.3.5.1.9.9.9s1.2-.4.9-.9c-.3-.4-.7-.8-.9-.8s-.6.4-.9.8M27 96.5c0 .8.2 1.5.4 1.5s.6-.7 1-1.5c.3-.8.1-1.5-.4-1.5-.6 0-1 .7-1 1.5m56.6 0c.4.8.8 1.5 1 1.5s.4-.7.4-1.5-.4-1.5-1-1.5c-.5 0-.7.7-.4 1.5"/><path fill="#004080" fill-opacity=".7" d="M35.9 7.7c-1.3 1.6-1.2 1.7.4.4.9-.7 1.7-1.5 1.7-1.7 0-.8-.8-.3-2.1 1.3M74 6.4c0 .2.8 1 1.8 1.7 1.5 1.3 1.6 1.2.3-.4S74 5.6 74 6.4M47.5 8c-.3.5-.1 1 .4 1 .6 0 1.1-.5 1.1-1 0-.6-.2-1-.4-1-.3 0-.8.4-1.1 1M63 8c0 .5.5 1 1.1 1 .5 0 .7-.5.4-1-.3-.6-.8-1-1.1-1-.2 0-.4.4-.4 1M2.1 48.6c0 1.1.3 1.4.6.6.3-.7.2-1.6-.1-1.9-.3-.4-.6.2-.5 1.3m107 0c0 1.1.3 1.4.6.6.3-.7.2-1.6-.1-1.9-.3-.4-.6.2-.5 1.3M5 66.1c0 .5.5.7 1 .4.6-.3 1-.8 1-1.1 0-.2-.4-.4-1-.4-.5 0-1 .5-1 1.1m100.5-.1c.3.5.8 1 1.1 1 .2 0 .4-.5.4-1 0-.6-.5-1-1.1-1-.5 0-.7.4-.4 1M19.1 81.6c0 1.1.3 1.4.6.6.3-.7.2-1.6-.1-1.9-.3-.4-.6.2-.5 1.3m73 0c0 1.1.3 1.4.6.6.3-.7.2-1.6-.1-1.9-.3-.4-.6.2-.5 1.3M16 85.8c-1.8 1.5-2 1.9-.7 1.9 1 0 1.5-.3 1.2-.5-.3-.3.3-1.1 1.3-1.8.9-.7 1.4-1.4 1.1-1.4-.4 0-1.7.8-2.9 1.8m78.2-.5c1 .8 1.6 1.6 1.3 1.9-.3.2.2.5 1 .5 1.9 0 1-1.4-1.8-2.7-2-1-2-1-.5.3M86.5 90c.3.5.8 1 1.1 1 .2 0 .4-.5.4-1 0-.6-.5-1-1.1-1-.5 0-.7.4-.4 1m-40.7 8.7c.7.3 1.6.2 1.9-.1.4-.3-.2-.6-1.3-.5-1.1 0-1.4.3-.6.6M64 99c0 .5.7.7 1.5.4.8-.4 1.5-.8 1.5-1s-.7-.4-1.5-.4-1.5.4-1.5 1m-24 .9c0 .6.4 1.3 1 1.6s.7-.1.4-.9c-.7-1.8-1.4-2.1-1.4-.7m30.6.8c-.6 1.4-.5 1.5.5.6.7-.7 1-1.5.7-1.8s-.9.2-1.2 1.2"/><path fill="#004080" fill-opacity=".2" d="M23 19.9c0 .6.4 1.3 1 1.6s.7-.1.4-.9c-.7-1.8-1.4-2.1-1.4-.7M99.2 27c0 1.4.2 1.9.5 1.2.2-.6.2-1.8 0-2.5-.3-.6-.5-.1-.5 1.3m-30.7 6c-.3.5-.1 1 .4 1 .6 0 1.1-.5 1.1-1 0-.6-.2-1-.4-1-.3 0-.8.4-1.1 1m-19 36.1c-.4.6-.5 1.2-.2 1.5.2.3.7-.2 1-1.1.7-1.7.1-2-.8-.4m-29 7.9c-.3.5-.1 1 .4 1 .6 0 1.1-.5 1.1-1 0-.6-.2-1-.4-1-.3 0-.8.4-1.1 1m73.1 5.2c.3.5 1 .6 1.5.3 1.3-.9 1.1-1.2-.6-1.2-.8 0-1.2.4-.9.9M32.3 97.7c.4.3.1 1.3-.6 2.2-1.1 1.4-1 1.4.5.2 1.6-1.2 1.6-3.1.1-3.1-.4 0-.3.3 0 .7m2.4 8.4c.7.7 1.5 1 1.8.7s-.2-.9-1.2-1.2c-1.4-.6-1.5-.5-.6.5"/><g fill="#004080" stroke-width="0"><path d="M38.6 2.5c-1.1.8-1.5 1.5-1 1.5.6 0 1.5-.5 2.2-1.2 1.6-1.6 2.8-.2 1.3 1.6-1.4 1.7.4 2.6 5.6 2.6 2.7 0 3.4.3 2.9 1.5-.6 1.8.5 2 2.1.4 2-2-.7-3.5-5.4-3.2-2.5.2-4.3-.1-4.3-.7 0-.5.5-1 1-1 .6 0 1-.7 1-1.5 0-1.9-2.9-1.9-5.4 0m29.4 0c0 .8.5 1.5 1 1.5.6 0 1 .5 1 1 0 .6-1.8.9-4.3.7-4.7-.3-7.4 1.2-5.4 3.2 1.6 1.6 2.7 1.4 2.1-.4-.5-1.2.2-1.5 2.9-1.5 5.2 0 7-.9 5.6-2.6-1.5-1.8-.3-3.2 1.3-1.6.7.7 1.6 1.2 2.2 1.2 1.8 0-2.8-2.9-4.6-3-1 0-1.8.7-1.8 1.5M30.5 4.1c-.4.6-.4 1.3-.1 1.6.3.4.6.1.6-.5s.8-1.3 1.8-1.5c1.5-.4 1.5-.5 0-.6-.9 0-2 .4-2.3 1M79 3.7c.8.3 1.9 1.1 2.3 1.7.6.7.7.6.4-.4-.2-.8-1.2-1.6-2.3-1.7-1.3-.2-1.5-.1-.4.4M25 8c-.8.5-1.2 1.2-.9 1.5.4.3 1.2-.1 1.9-1 1.4-1.7 1.1-1.9-1-.5m60-.6c0 .2.7.9 1.5 1.6.9.7 1.5.8 1.5.2 0-.5-.7-1.2-1.5-1.6-.8-.3-1.5-.4-1.5-.2M43.3 9.7c.9.2 2.3.2 3 0 .6-.3-.1-.5-1.8-.5-1.6 0-2.2.2-1.2.5m23 0c.9.2 2.3.2 3 0 .6-.3-.1-.5-1.8-.5-1.6 0-2.2.2-1.2.5m-44 2.8c-.3.9-.3 1.8-.1 2.1.3.3.8-.4 1.1-1.6.6-2.3-.1-2.7-1-.5M31 12c1.3.9 1.2 1.3-.5 2.7-1.8 1.4-1.8 1.5-.2.9 1-.3 2.2-.6 2.6-.6s.7-.9.7-2c0-1.4-.7-2-2.1-2-1.7 0-1.7.2-.5 1m47.4 1c0 1.1.3 2 .7 2s1.6.3 2.6.6c1.6.6 1.6.5-.2-.9-1.7-1.4-1.8-1.8-.5-2.7 1.2-.8 1.2-1-.5-1-1.4 0-2.1.6-2.1 2m10.3.1c.4 1.3.8 1.8 1.1 1 .2-.7-.1-1.8-.6-2.3-.8-.8-.9-.4-.5 1.3m-47.4-.4c3.2.8 1.8 2.5-1.5 1.8-2.7-.5-3-.4-1.5.6 1.1.6 3.3.8 5.3.4 3-.5 3.3-.8 2-2-.8-.8-2.5-1.4-3.8-1.4-1.7.1-1.8.3-.5.6m25 .8c-1.1 1.2-.7 1.5 2.1 2.1 2 .3 4.2.1 5.3-.5 1.5-1 1.2-1.1-1.4-.6-3.4.7-4.8-1-1.5-1.8 1.1-.3.9-.5-.8-.5-1.4-.1-3.1.5-3.7 1.3m-44.5 4c-.4.4-.4 1.3-.1 2.1s0 2.1-.7 2.9c-.7.9-1 1.8-.7 2.1.9.9 2.9-3.5 2.5-5.7-.2-1.2-.6-1.8-1-1.4M89 19.2c0 2.4 2.9 7.4 3 5.1 0-.6-.5-1.5-1.1-1.9-.6-.3-.9-1.5-.6-2.5s.1-2.2-.4-2.5-.9.5-.9 1.8m-78.8.8c-.7 1.1-.8 2-.4 2 .5 0 .9 2.2.9 5-.1 5.5-.3 5.7-2.7 3.5-1.6-1.5-1.8-1.3-2.7 2.4-.6 2.2-.7 4.3-.3 4.8.5.4 1 1.7 1.3 2.8s.3-.4 0-3.3c-.4-3.5-.2-5.2.6-5.2.6 0 1.2 1.5 1.2 3.2.2 2.8.2 2.9.6.8.3-1.4 1.1-2.9 1.9-3.3.9-.5 1.4-2.7 1.5-6 .1-4.5.2-4.8.9-2.2.6 2.3.8 2.5.9.8 0-1.2.5-2.4 1.1-2.8.5-.3.1-1.4-1-2.5-2.4-2.4-2.2-2.4-3.8 0m17.3-.9c-1.5.6-1 .8 2 .9 3.4.1 3.7.3 1.8 1-2.7 1.1-3.1 2.2-.5 1.3 2.6-1 5.8-3.3 4.7-3.5-3.3-.5-6.3-.4-8 .3m49.7-.3c-1.2.8-.4 1.4 5.1 4 .4.2.7.1.7-.3 0-.3-1-1-2.2-1.5-2-.7-1.7-.9 1.6-.9 2.2-.1 3.7-.3 3.5-.6-1-.9-7.4-1.5-8.7-.7M97.8 20c-1 1.1-1.3 2.2-.8 2.5.6.4 1.1 1.6 1.1 2.8.1 1.7.3 1.5.9-.8.6-2.5.8-2 .9 2.7.1 4.3.5 5.8 1.5 5.8.8 0 1.7 1.2 1.9 2.7.4 2.6.4 2.6.6-.5 0-1.7.6-3.2 1.2-3.2.8 0 1 1.7.6 5.2-.3 2.9-.3 4.4 0 3.3s.8-2.4 1.3-2.8c.4-.5.3-2.6-.3-4.8-.9-3.7-1.1-3.9-2.7-2.4-2.4 2.2-2.6 2-2.7-3.5 0-2.8.4-5 .9-5 .4 0 .3-.9-.4-2-1.5-2.4-1.8-2.4-4 0m-79.2.7c-.6 1.4-.5 1.5.5.6.7-.7 1-1.5.7-1.8s-.9.2-1.2 1.2m73.4-.8c0 .6.4 1.3 1 1.6s.7-.1.4-.9c-.7-1.8-1.4-2.1-1.4-.7M22 27c0 .5.6 1 1.3 1 .6.1.1 1-1.2 2-1.3 1.1-1.8 2-1.2 2 1.2 0 5.1-4 5.1-5.2 0-.4-.9-.8-2-.8s-2 .4-2 1m64-.2c0 1.2 3.9 5.2 5.1 5.2.6 0 .1-.9-1.2-2-1.3-1-1.8-1.9-1.1-2 2.1 0 1.3-2-.8-2-1.1 0-2 .4-2 .8m-68.4 1.1c-.4.7-.5 1.5-.2 1.8.9.9 1.9-.4 1.4-1.8-.4-1.1-.6-1.1-1.2 0m29.9.2c-1.5.6-1.1.8 1.8.8 2 .1 3.7-.1 3.7-.3 0-.9-3.7-1.2-5.5-.5m45.5.3c0 .9.5 1.6 1 1.6.6 0 1-.4 1-.9 0-.6-.4-1.3-1-1.6-.5-.3-1 .1-1 .9m-79.9 2.2c0 1.1.3 1.4.6.6.3-.7.2-1.6-.1-1.9-.3-.4-.6.2-.5 1.3m85 0c0 1.1.3 1.4.6.6.3-.7.2-1.6-.1-1.9-.3-.4-.6.2-.5 1.3M39 31.9c0 1.3-.7 2.1-1.6 2.1-1 0-1.4-.6-1-1.5.6-1.7-.2-1.9-2.3-.6-1.2.8-1.2 1.2-.2 2.5.8.9 1 1.6.5 1.7-.5 0 .2.5 1.5 1 1.6.6 2.8.6 3.7-.2 1.6-1.3 1.9-5.5.4-6.4-.5-.3-1 .3-1 1.4m36.3.4c-3.9 1.5-7.1 4.3-3.6 3.3 1.3-.4 3.5 0 5.5 1l3.3 1.7-1.9-2.1c-1.5-1.8-1.6-2.4-.6-3.7 1.4-1.7 1.5-1.7-2.7-.2m-55.4 2.4c1.1.4.8 1-1 2.4-2 1.6-2.1 1.8-.4 1.2 3.5-1.2 4.8-4.4 1.8-4.2-1.3 0-1.4.2-.4.6M43 35c0 .5-.2 1.4-.5 2.2-.3.7.6 1.8 2 2.4 1.3.7 2.5.8 2.7.3.2-.4 4.4-1 9.4-1.2C67.3 38.2 73 36.1 64 36c-3-.1-7.1-.3-9-.6-9.4-1.1-12-1.2-12-.4m47-.3c0 1.5 1.5 2.9 3.5 3.6 1.7.6 1.6.4-.4-1.2-1.8-1.4-2.1-2-1-2.4q1.5-.6-.3-.6c-1-.1-1.8.2-1.8.6M15 36c0 .5.7.7 1.5.4.8-.4 1.5-.8 1.5-1s-.7-.4-1.5-.4-1.5.4-1.5 1"/><path d="M94 35.4c0 .2.7.6 1.5 1 .8.3 1.5.1 1.5-.4 0-.6-.7-1-1.5-1s-1.5.2-1.5.4m-82 2.7c0 .5.5.7 1 .4.6-.3 1-.8 1-1.1 0-.2-.4-.4-1-.4-.5 0-1 .5-1 1.1m86.5-.1c.3.5.8 1 1.1 1 .2 0 .4-.5.4-1 0-.6-.5-1-1.1-1-.5 0-.7.4-.4 1M1.4 43.8c-.1 1.5.1 2.1.3 1.4 1.1-2.9 2.3-.8 2.3 4 0 6.2.9 6 1.2-.4.2-3.1-.2-5-1.4-6.1-2.2-2.2-2.3-2.2-2.4 1.1M12 42.5c-1.1 1.3-1 1.4.4.9.9-.3 1.6-1 1.6-1.5 0-1.3-.6-1.1-2 .6m5.7-.4c.7.7 1.5 1 1.8.7s-.2-.9-1.2-1.2c-1.4-.6-1.5-.5-.6.5M93 42c-.9.6-1 1-.3 1 .6 0 1.5-.5 1.8-1 .8-1.2.4-1.2-1.5 0m5-.1c0 .5.7 1.2 1.6 1.5 1.4.5 1.5.4.4-.9-1.4-1.7-2-1.9-2-.6m10 .8c-.9 1.1-1.4 3.4-1.2 6.2.3 6.3 1.2 6.5 1.2.3 0-4.8 1.2-6.9 2.3-4 .2.7.4.1.3-1.4-.1-3.2-.5-3.4-2.6-1.1m-47 3.4c0 .5.9.9 2 .9s2-.2 2-.4-.9-.6-2-.9-2-.1-2 .4m-47.8 3c-1.2 1.9-1.1 2 .7 1.4 2.2-.7 2.7.3 1.1 2.3-.5.7-.2.5.7-.3 2.2-1.9 2.5-5.5.4-5.5-.9 0-2.2.9-2.9 2.1m81.3-.1c.1 1.1.7 2.6 1.4 3.3 1 .9 1.1.8.5-.7s-.4-1.7 1.5-1.1c2 .6 2.1.5.9-1.4-1.7-2.7-4.5-2.8-4.3-.1M7.7 50c-.3 1.1-.1 1.8.4 1.4.5-.3.9.9.9 2.6s.4 2.9.8 2.6c1-.6.3-8.6-.8-8.6-.4 0-1 .9-1.3 2m63.3-.5c-.3 2.7 0 4.8.9 5.8 1.1 1.1 6.2-.3 5.5-1.5-.4-.6-.1-1.4.6-1.8.9-.6.7-1.1-.9-1.9-1.7-1-2.1-.9-2.1.4 0 2.4-2.8 1.8-3.3-.8-.4-2-.5-2-.7-.2m30.8 2.6c-.2 2.2 0 4.3.4 4.5.4.3.8-.9.8-2.6s.4-2.9.9-2.6c.5.4.7-.3.4-1.4-.9-3.3-2.1-2.3-2.5 2.1m-68.4-1.2c.4.6.2 2-.5 3.2-.9 1.7-.8 2 .2 1.3.7-.4 2.8-1 4.6-1.3 4-.7 3.2-2.5-1.6-3.6-2.3-.5-3.1-.4-2.7.4M2.1 53.6c0 1.1.3 1.4.6.6.3-.7.2-1.6-.1-1.9-.3-.4-.6.2-.5 1.3m64.8-1.2c-.6.6-10.3 1.5-18.4 1.7-3.8.1-6.2.3-5.2.6.9.2 1.7 1.1 1.7 1.9 0 1.1.4 1.3 1.7.5 2-1.1 16.5-.2 17.4 1.1.3.5 1.7.3 3.1-.5 2.3-1.1 2.4-1.6 1.4-3.5-.7-1.3-1.4-2.1-1.7-1.8m42.2 1.2c0 1.1.3 1.4.6.6.3-.7.2-1.6-.1-1.9-.3-.4-.6.2-.5 1.3M1.7 59.1c-.3 1.2 0 2.8.8 3.5 2 2.1 2.7 1.7 1.4-.8-.9-1.7-.9-2.3 0-2.6.6-.2.9-.8.5-1.3-.9-1.5-2.1-1-2.7 1.2m105.9-1.2c-.4.5-.1 1.1.5 1.3.9.3.9.9 0 2.6-1.3 2.5-.6 2.9 1.4.8.8-.7 1.1-2.3.8-3.5-.6-2.2-1.8-2.7-2.7-1.2m-93.3 1.8c-.7.2-1.3 1.1-1.3 1.9s-.4 1.4-1 1.4c-.5 0-.6.8-.3 1.7.5 1.4.8 1.2 1.6-1.1.6-1.7 1.4-2.5 2.3-2.2.8.3 1.1 0 .7-1-.3-.7-.6-1.4-.7-1.3 0 0-.7.3-1.3.6m81.3.8c-.3.9 0 1.2.8.9.9-.3 1.6.5 2 2.2.6 2.2.9 2.5 1.6 1.3.6-.8.6-1.5 0-1.7s-1-1-1-1.7c0-1.8-2.7-2.7-3.4-1m-47.8 4.2c.7.3 1.6.2 1.9-.1.4-.3-.2-.6-1.3-.5-1.1 0-1.4.3-.6.6M34 68.1c-2.3.9-2.3 1.1-.7 2 .9.6 1.5 1.4 1.2 1.8-.8 1.4 3.8 2.1 5.2.9 1.5-1.2 1.7-4.4.3-5.3-.5-.3-1 .1-1 .9 0 .9-.7 1.6-1.6 1.6-1 0-1.4-.6-1-1.5.3-.8.4-1.5.3-1.4-.1 0-1.3.5-2.7 1m41.2.3c-1.7.7-3.7 1.7-4.4 2.4-.9.9-.5 1.2 2.1 1.2 1.8 0 4.2.5 5.4 1.1 2.2 1.2 2.2 1.2.3-.9-1.5-1.8-1.6-2.4-.6-3.7.7-.8 1.1-1.4.9-1.4-.2.1-1.9.7-3.7 1.3m-56.6 2.1c.2 1.1.4 3.5.4 5.4s.2 3.2.5 2.9c.9-.9 1.2-7.8.4-7.8-.4 0-.9-.6-1.2-1.3-.2-.6-.3-.3-.1.8M93 69.3c0 .9-.4 1.7-.8 1.7-.7 0-.7 2.7-.2 7 .2.8.6-1 1-4 .5-3 .7-5.7.4-5.9-.2-.2-.4.3-.4 1.2m-50.7 3.3c-1 2.1-.9 2.4.7 2.4 1 0 2.1.6 2.3 1.2.4 1 .7 1 1.4.1.6-.8 4.3-1.3 10.3-1.5 6.1-.1 10-.7 10.8-1.5 1.1-1.1.4-1.3-4-1.4q-9.15-.15-16.8-1.2c-3-.5-3.7-.2-4.7 1.9m-32.7-.1c-.3.8-.1 1.5.4 1.5.6 0 1-.7 1-1.5s-.2-1.5-.4-1.5-.6.7-1 1.5m6.4 0c0 .8-.7 1.5-1.5 1.5s-1.5.4-1.5 1c0 .5.6 1 1.4 1s1.7.6 1.9 1.2c.3.7.6-.4.6-2.5.1-2-.1-3.7-.4-3.7s-.5.7-.5 1.5m79.2 2c0 2.2.2 3.4.5 2.7.2-.6 1.1-1.2 1.9-1.2s1.4-.5 1.4-1c0-.6-.6-1-1.4-1s-1.7-.8-1.9-1.8c-.3-.9-.5.1-.5 2.3m5.8-2c0 .8.4 1.5 1 1.5.5 0 .7-.7.4-1.5-.4-.8-.8-1.5-1-1.5s-.4.7-.4 1.5M7.8 79.7c-1.9.5-1.3 3.3.7 3.3.7 0 1.5.6 1.8 1.2.4 1 .7 1 1.8 0s1-1.2-.4-1.2c-1.9 0-2.3-1.6-.5-2.2 1.7-.6-1.3-1.5-3.4-1.1m93.1.4c-1 .6-1.1.9-.1.9.6 0 1.2.4 1.2 1 0 .5-.8 1-1.7 1-1.4 0-1.5.2-.4 1.2s1.4 1 1.8 0c.3-.6 1.1-1.2 1.8-1.2s1.5-.6 1.8-1.4c.7-1.7-2.5-2.7-4.4-1.5M26.2 82c-.7 1.1-.8 2-.3 2 .9 0 2.4-3 1.8-3.6-.1-.2-.8.6-1.5 1.6M84 80.6c0 1.3 1.8 3.9 2.4 3.4.2-.3-.2-1.4-1-2.4-.8-1.1-1.4-1.6-1.4-1m-55 2.6c0 .7.4 1.9.9 2.7.6.9.9.5.9-1.3 0-1.4-.4-2.6-.9-2.6s-.9.6-.9 1.2m52.3 1.4c0 1.8.2 2.2.8 1.3 1.1-1.8 1.1-3.9 0-3.9-.5 0-.8 1.2-.8 2.6m-68 .9c-1.7 1.9-1.6 3.3.2 5.2 1.9 1.8 3.3 1 1.7-1-.6-.7-.9-2.3-.5-3.5.6-2.5.3-2.7-1.4-.7M33 87.4c0 1.9.4 3.7.9 4 .5.4.7-.3.4-1.4s0-2 .6-2 1.1.4 1.1.8c0 .5.7 1.7 1.5 2.8 1.3 1.7 1.3 1.6.3-1.7-.5-2-1.9-4.1-2.9-4.7-1.7-1.1-1.9-.9-1.9 2.2m43.9-2.1c-.8.7-2.1 2.8-2.7 4.7-1.1 3.2-1 3.3.3 1.6.8-1.1 1.5-2.3 1.5-2.8 0-.4.5-.8 1.1-.8.7 0 .9.9.6 2.1-.4 1.5-.3 1.9.4 1.2.6-.6.9-2.4.7-4.1-.3-2.6-.5-2.9-1.9-1.9m20.4.6c.3 1.4.1 3.1-.5 3.8-1.6 2-.2 2.8 1.7 1 1.9-2 1.9-3.4-.2-5.5-1.6-1.6-1.6-1.5-1 .7m-76 2.5c.2.6 1.6 1.1 3 1.1 1.5.1 3.2.6 3.9 1.3 1.5 1.5 2.8 1.6 2.8.2 0-.5-1.1-1.2-2.5-1.6-1.4-.3-2.5-.9-2.5-1.3 0-.3-1.1-.7-2.5-.7-1.6-.1-2.4.3-2.2 1m18.9 1.8c.7 1.8 2.1 4.2 3.1 5.3 1.8 1.7 1.7 1.5-.2-1.8C41 90.3 41 90 42.6 90s1.6-.1-.2-1.5c-2.9-2.2-3.4-1.8-2.2 1.7m29.4-1.7c-1.8 1.4-1.8 1.5-.2 1.5s1.6.3-.5 3.7c-1.9 3.3-2 3.5-.2 1.8 2-2.1 4.7-8.5 3.5-8.5-.4 0-1.6.7-2.6 1.5m16.4-.4c0 .4-1.1 1-2.5 1.3-1.4.4-2.5 1.1-2.5 1.6 0 1.4 1.3 1.3 2.8-.2.7-.7 2.4-1.2 3.9-1.3 1.4 0 2.8-.5 3-1.1.2-.7-.6-1.1-2.2-1-1.4 0-2.5.4-2.5.7M45.2 93c.7 1 1.4 1.8 1.5 1.6.6-.6-.9-3.6-1.8-3.6-.5 0-.4.9.3 2m20.4-.4c-.9 2.4-.2 2.6 1.2.4.7-1.1.8-2 .3-2s-1.2.7-1.5 1.6m-46.8.2c-1 .2-1.8.8-1.8 1.3 0 1.3 4.9 3.1 6.9 2.6q1.5-.45-.6-.6c-2.8-.1-4.1-2.1-1.4-2.1 1.2 0 2.1-.4 2.1-.9 0-1-1.7-1-5.2-.3M88 93c0 .5 1 1 2.2 1 2.3 0 1.6 1.4-1.2 2.3-.8.2-.2.3 1.5.1 2.9-.4 5.3-1.9 4.4-2.8-1-1.1-6.9-1.6-6.9-.6m-38.9 6.4c.2.2 1.5.9 2.9 1.5 2.4 1.1 2.4 1.1.6-.3-1.6-1.3-4.9-2.4-3.5-1.2m-14.9 3.2-2.3 2.4h3.5c1.9 0 3.8-.5 4.1-1.1.4-.6 1.3-.8 2-.5.7.2 1.6-.2 1.9-1 .5-1.2 0-1.2-3.1.1-4.5 1.9-4.6 1.9-3.8-.5.8-2.5.5-2.5-2.3.6m40.8-1.1c1.9 2.3.7 2.7-3.3 1-3.1-1.3-3.6-1.3-3.1-.1.3.8 1.2 1.2 1.9 1 .7-.3 1.6-.1 2 .5.3.6 2.2 1.1 4.1 1.1h3.5l-2.5-2.5c-2.7-2.7-4.6-3.4-2.6-1m-18 1.9c0 .3.9 1 2 1.6s2 .8 2 .6c0-.3-.9-1-2-1.6s-2-.8-2-.6m-7.6 3.2c-1.8 1.4-1.8 1.5.4.4 1.2-.6 2.2-1.3 2.2-1.5 0-.8-.5-.6-2.6 1.1m13.3.5c.7.7 1.5 1 1.8.7s-.2-.9-1.2-1.2c-1.4-.6-1.5-.5-.6.5"/></g><path fill="navy" fill-opacity=".1" d="M49.7 48.1c.7.7 1.5 1 1.8.7s-.2-.9-1.2-1.2c-1.4-.6-1.5-.5-.6.5M99.5 55c.3.5.8 1 1.1 1 .2 0 .4-.5.4-1 0-.6-.5-1-1.1-1-.5 0-.7.4-.4 1M31.6 72.2c.3.5 1 .6 1.5.3 1.3-.9 1.1-1.2-.6-1.2-.8 0-1.2.4-.9.9M24 77.4c0 .2.8 1 1.8 1.7 1.5 1.3 1.6 1.2.3-.4S24 76.6 24 77.4m49.6 10.3c-.6 1.4-.5 1.5.5.6.7-.7 1-1.5.7-1.8s-.9.2-1.2 1.2"/><path fill="#004080" fill-opacity=".1" d="M62.5 49c2.7 1.2 4.3 1.2 2.5 0-.8-.5-2.2-.9-3-.9-1 0-.8.3.5.9m-51.8 6.9c-.4 1.7-.3 2.1.5 1.3.5-.5.8-1.6.6-2.3-.3-.8-.7-.3-1.1 1M41.5 67c-.3.5-.1 1 .4 1 .6 0 1.1-.5 1.1-1 0-.6-.2-1-.4-1-.3 0-.8.4-1.1 1m44.6 11.3c-.8 1-.7 1.4.2 1.4.8 0 1.4-.6 1.4-1.4 0-.7-.1-1.3-.2-1.3-.2 0-.8.6-1.4 1.3"/><path fill="#004080" fill-opacity=".6" d="M44.8 8.2c.9.9 1.5.9 2.4 0S47.9 7 46 7s-2.1.3-1.2 1.2M64.5 8c.3.5 1 1 1.6 1 .5 0 .9-.5.9-1 0-.6-.7-1-1.6-1-.8 0-1.2.4-.9 1m-26.6 4.7c-1.3 1.6-1.2 1.7.4.4.9-.7 1.7-1.5 1.7-1.7 0-.8-.8-.3-2.1 1.3M72 11.4c0 .2.8 1 1.8 1.7 1.5 1.3 1.6 1.2.3-.4S72 10.6 72 11.4m-46.4 5.8c.3.5 1 .6 1.5.3 1.3-.9 1.1-1.2-.6-1.2-.8 0-1.2.4-.9.9m59 0c.3.5 1 .6 1.5.3 1.3-.9 1.1-1.2-.6-1.2-.8 0-1.2.4-.9.9M9.4 24c0 1.3.4 1.6 1 1 .7-.7.7-1.3 0-2-.6-.6-1-.3-1 1m92-.9c-.3.6-.2 1.5.3 2s.9.1.9-1.1c0-2.3-.2-2.4-1.2-.9M2.6 45.8c-.2.4-.1 1.4.5 2.2.7 1.2.9 1 .9-.8 0-2.3-.5-2.8-1.4-1.4M108 46.9c0 2.5.6 2.7 1.3.6.4-.8.2-1.7-.3-2-.6-.4-1 .3-1 1.4M45.8 65.2c.5.5 1.6.8 2.3.6.8-.3.3-.7-1-1.1-1.7-.4-2.1-.3-1.3.5M14.5 80c.3.5.8 1 1.1 1 .2 0 .4-.5.4-1 0-.6-.5-1-1.1-1-.5 0-.7.4-.4 1m81.5.1c0 .5.5.7 1 .4.6-.3 1-.8 1-1.1 0-.2-.4-.4-1-.4-.5 0-1 .5-1 1.1m-6 2.8c0 .6.4 1.3 1 1.6s.7-.1.4-.9c-.7-1.8-1.4-2.1-1.4-.7m-66 .5c0 .2.8 1 1.8 1.7 1.5 1.3 1.6 1.2.3-.4S24 82.6 24 83.4m61.9 1.3c-1.3 1.6-1.2 1.7.4.4s2.1-2.1 1.3-2.1c-.2 0-1 .8-1.7 1.7m-61.3 7.6c.3 1 .9 1.5 1.2 1.2s0-1.1-.7-1.8c-1-.9-1.1-.8-.5.6m61.9-.2c-.4.6-.5 1.2-.2 1.5.2.3.7-.2 1-1.1.7-1.7.1-2-.8-.4"/><path fill="#004080" fill-opacity=".8" d="M26.6 14.7c-.6 1.4-.5 1.5.5.6.7-.7 1-1.5.7-1.8s-.9.2-1.2 1.2m-1.5 13.6c-1.3 2.1-1.2 2.1.5.5 1-1 1.6-2 1.3-2.2-.3-.3-1.1.5-1.8 1.7M85 26.7c0 .6.8 1.7 1.8 2.4 1.6 1.3 1.6 1.3.2-.6-.8-1.1-1.6-2.2-1.7-2.4q-.3-.3-.3.6M37 31c0 .5.5 1 1.1 1 .5 0 .7-.5.4-1-.3-.6-.8-1-1.1-1-.2 0-.4.4-.4 1M15 42.4c0 .2.8 1 1.8 1.7 1.5 1.3 1.6 1.2.3-.4S15 41.6 15 42.4m79.9 1.3c-1.3 1.6-1.2 1.7.4.4.9-.7 1.7-1.5 1.7-1.7 0-.8-.8-.3-2.1 1.3M6.6 50.8c-.3.5.1.9.9.9s1.2-.4.9-.9c-.3-.4-.7-.8-.9-.8s-.6.4-.9.8m97 0c-.3.5.1.9.9.9s1.2-.4.9-.9c-.3-.4-.7-.8-.9-.8s-.6.4-.9.8M7.5 69c.3.5.8 1 1.1 1 .2 0 .4-.5.4-1 0-.6-.5-1-1.1-1-.5 0-.7.4-.4 1m95.5.1c0 .5.5.7 1 .4.6-.3 1-.8 1-1.1 0-.2-.4-.4-1-.4-.5 0-1 .5-1 1.1m-87.5 15c-1.1 1.6-.1 1.9 1.3.3.7-.8.8-1.4.3-1.4s-1.3.5-1.6 1.1m79.7.3c.7.8 1.5 1.2 1.7 1.1.5-.6-1-2.5-2-2.5-.5 0-.4.6.3 1.4m-80 5.5c.7.9 1.3 1.8 1.5 2 .1.2.1-.5 0-1.6 0-1.1-.7-2-1.4-2-1 0-1 .4-.1 1.6m80.1.4c-.1 1.1-.1 1.8 0 1.6.2-.2.8-1.1 1.5-2 .9-1.2.9-1.6-.1-1.6-.7 0-1.4.9-1.4 2m-68.2 2.1c-.9 1.1-.9 1.6.1 2.2.7.4 1 .4.6-.1-.4-.4-.3-1.4.3-2.2.6-.7.9-1.3.6-1.3-.2 0-1 .6-1.6 1.4m56.8-.1c.6.8.7 1.8.3 2.2-.4.5-.1.5.6.1 1-.6 1-1.1.1-2.2-.6-.8-1.4-1.4-1.6-1.4-.3 0 0 .6.6 1.3m-48 2c.6.8.7 1.8.3 2.2-.4.5-.1.5.6.1 1-.6 1-1.1.1-2.2-.6-.8-1.4-1.4-1.6-1.4-.3 0 0 .6.6 1.3m39.2.1c-.9 1.1-.9 1.6.1 2.2.7.4 1 .4.6-.1-.4-.4-.3-1.4.3-2.2.6-.7.9-1.3.6-1.3-.2 0-1 .6-1.6 1.4m-35.8 9.1c0 .8.4 1.2.9.9s.6-1 .3-1.5c-.9-1.3-1.2-1.1-1.2.6m32.2-.6c-.3.5-.2 1.2.3 1.5s.9-.1.9-.9c0-1.7-.3-1.9-1.2-.6"/><path fill="#004080" fill-opacity=".4" d="M26.5 20.9c-.3.5-.2 1.2.3 1.5s.9-.1.9-.9c0-1.7-.3-1.9-1.2-.6m57.8.6c0 .8.4 1.2.9.9s.6-1 .3-1.5c-.9-1.3-1.2-1.1-1.2.6M47.5 30c.3.5.8 1 1.1 1 .2 0 .4-.5.4-1 0-.6-.5-1-1.1-1-.5 0-.7.4-.4 1M16 33c0 .5.5 1 1.1 1 .5 0 .7-.5.4-1-.3-.6-.8-1-1.1-1-.2 0-.4.4-.4 1M5 40.9c0 .6.4 1.3 1 1.6s.7-.1.4-.9c-.7-1.8-1.4-2.1-1.4-.7m100.6.8c-.6 1.4-.5 1.5.5.6.7-.7 1-1.5.7-1.8s-.9.2-1.2 1.2M9 45.4c.7.7 1.3.7 2 0 .6-.6.3-1-1-1s-1.6.4-1 1m53.8 21.3c.7.3 1.6.2 1.9-.1.4-.3-.2-.6-1.3-.5-1.1 0-1.4.3-.6.6M6 75c.6 1.1 1.3 2 1.6 2 .2 0 0-.9-.6-2s-1.3-2-1.6-2c-.2 0 0 .9.6 2m99-.5c-.7.9-.8 1.5-.2 1.5.5 0 1.2-.7 1.6-1.5.3-.8.4-1.5.2-1.5s-.9.7-1.6 1.5m-91.5 7.4c-.3.5-.2 1.2.3 1.5s.9-.1.9-.9c0-1.7-.3-1.9-1.2-.6m83.9-.1c.3.5 0 1.3-.6 1.5-.9.4-1 .6-.1.6 1.7.1 2.5-1.6 1.2-2.5-.7-.4-.9-.3-.5.4M88 91c0 .5.5 1 1.1 1 .5 0 .7-.5.4-1-.3-.6-.8-1-1.1-1-.2 0-.4.4-.4 1m-5.5 3.9c-.3.5-.2 1.2.3 1.5s.9-.1.9-.9c0-1.7-.3-1.9-1.2-.6"/><path fill="navy" fill-opacity=".2" d="M53.7 67.1c.7.7 1.5 1 1.8.7s-.2-.9-1.2-1.2c-1.4-.6-1.5-.5-.6.5m-18 30c.7.7 1.5 1 1.8.7s-.2-.9-1.2-1.2c-1.4-.6-1.5-.5-.6.5"/><path fill-opacity=".3" d="M95 119.4c0 .2.8 1 1.8 1.7 1.5 1.3 1.6 1.2.3-.4s-2.1-2.1-2.1-1.3M42.2 123c0 1.9.2 2.7.5 1.7.2-.9.2-2.5 0-3.5-.3-.9-.5-.1-.5 1.8m.2 5.4c-.3.8-.4 2.5-.2 3.8.3 1.7.5 1.3.9-1.5.5-3.8.2-4.7-.7-2.3M29 137c-2.3.7-2.3.8-.3.9 1.2.1 2.5-.4 2.8-.9.3-.6.5-1 .3-.9s-1.4.5-2.8.9m52.8.7c.6.2 1.8.2 2.5 0 .6-.3.1-.5-1.3-.5s-1.9.2-1.2.5"/><path fill-opacity=".6" d="M24.2 123c0 1.9.2 2.7.5 1.7.2-.9.2-2.5 0-3.5-.3-.9-.5-.1-.5 1.8m15.1 4c0 4.1.2 5.8.4 3.7.2-2 .2-5.4 0-7.5-.2-2-.4-.3-.4 3.8m69.9 3c0 1.9.2 2.7.5 1.7.2-.9.2-2.5 0-3.5-.3-.9-.5-.1-.5 1.8m-85 1c0 1.9.2 2.7.5 1.7.2-.9.2-2.5 0-3.5-.3-.9-.5-.1-.5 1.8m36.8 6.1c0 .5.5.7 1 .4.6-.3 1-.8 1-1.1 0-.2-.4-.4-1-.4-.5 0-1 .5-1 1.1"/><path fill-opacity=".7" d="M11.4 124.5c0 6 .1 8.4.3 5.2s.2-8.1 0-11-.3-.3-.3 5.8m9.6-5.7c0 .4 1.7.6 3.8.4 5.8-.5 6.2-1 1-1.1-2.7-.1-4.8.3-4.8.7m19.3-.1c.9.2 2.5.2 3.5 0 .9-.3.1-.5-1.8-.5s-2.7.2-1.7.5m37 0c1.5.2 3.7.2 5 0 1.2-.2 0-.4-2.8-.4-2.7 0-3.8.2-2.2.4m30.5 0c.7.3 1.6.2 1.9-.1.4-.3-.2-.6-1.3-.5-1.1 0-1.4.3-.6.6m1.4 5.8c0 1.6.2 2.2.5 1.2.2-.9.2-2.3 0-3-.3-.6-.5.1-.5 1.8m-83.4 3.2c.7.3 1.6.2 1.9-.1.4-.3-.2-.6-1.3-.5-1.1 0-1.4.3-.6.6m54 0c.6.2 1.8.2 2.5 0 .6-.3.1-.5-1.3-.5s-1.9.2-1.2.5"/><path fill-opacity=".9" d="M45.6 120.2c.3.5 1 .6 1.5.3 1.3-.9 1.1-1.2-.6-1.2-.8 0-1.2.4-.9.9m32.7 6.8c0 4.7.2 6.6.4 4.2.2-2.3.2-6.1 0-8.5-.2-2.3-.4-.4-.4 4.3m21.7-1.5c3.5 3.6 6.7 6.5 6.9 6.5.3 0-2.4-2.9-5.9-6.5s-6.7-6.5-6.9-6.5c-.3 0 2.4 2.9 5.9 6.5m-54.4.4c-.3.5.1 1.1.9 1.4.9.4 1.2.1.8-.9-.6-1.6-1-1.7-1.7-.5m56.9 5.1c3.3 3.3 6.2 6 6.4 6 .3 0-2.1-2.7-5.4-6s-6.2-6-6.4-6c-.3 0 2.1 2.7 5.4 6m-9.5.2c0 3.1.3 3.9 1 2.8 1.3-2 1.3-5.7 0-6.5-.6-.4-1 1.1-1 3.7m-31-2.8c0 .2.8 1 1.8 1.7 1.5 1.3 1.6 1.2.3-.4s-2.1-2.1-2.1-1.3m-35.2 8.3c.7.3 1.6.2 1.9-.1.4-.3-.2-.6-1.3-.5-1.1 0-1.4.3-.6.6m-20.4 5.9c-1.8 1.4-1.8 1.5.4.4 1.2-.6 2.2-1.3 2.2-1.5 0-.8-.5-.6-2.6 1.1"/><path fill-opacity=".8" d="M8.8 112.7c.7.3 1.6.2 1.9-.1.4-.3-.2-.6-1.3-.5-1.1 0-1.4.3-.6.6m84.3 10.5c-.1 2 .4 4 .9 4.3.6.3 1-.3 1-1.5 0-1.4.4-1.9 1.3-1.5.6.4.5.1-.4-.7-.9-.7-1.8-2-2.2-2.8-.3-.8-.6.2-.6 2.2"/><path fill-opacity=".2" d="M75.3 127c0 4.1.2 5.8.4 3.7.2-2 .2-5.4 0-7.5-.2-2-.4-.3-.4 3.8m25.7-1.5c1.9 1.9 3.6 3.5 3.9 3.5s-1-1.6-2.9-3.5-3.6-3.5-3.9-3.5 1 1.6 2.9 3.5m1.7 6.5c3.4 3.5 6.4 6.2 6.5 6 .2-.3-2.6-3.2-6.2-6.5l-6.5-5.9zm-7.2 4c.6 1 .1 1.2-1.9.8-1.4-.3-2.6-.1-2.6.3 0 .5 1.4.9 3 .9 3 0 4-1.3 1.8-2.6q-1.05-.75-.3.6M74 137c0 .6.7 1 1.5 1s1.5-.2 1.5-.4-.7-.6-1.5-1c-.8-.3-1.5-.1-1.5.4m-49.2.7c.7.3 1.6.2 1.9-.1.4-.3-.2-.6-1.3-.5-1.1 0-1.4.3-.6.6m13 0c.7.3 1.6.2 1.9-.1.4-.3-.2-.6-1.3-.5-1.1 0-1.4.3-.6.6m41 0c.7.3 1.6.2 1.9-.1.4-.3-.2-.6-1.3-.5-1.1 0-1.4.3-.6.6"/><path d="M8 125.9c0 7.1-.3 13.8-.6 14.8-.4 1.4-.1 1.3 1.5-.6 1.9-2.1 2.1-3.6 2.1-14.7 0-10.4-.2-12.4-1.5-12.4S8 115.1 8 125.9m14 2.1c0 8.7.1 9 2.3 8.9 1.2 0 1.6-.3 1-.6-.9-.3-1.3-3.1-1.3-8.9 0-4.9-.4-8.4-1-8.4s-1 3.7-1 9m18 0c0 6.5.3 9 1.3 9 .9 0 1.1-2.3.9-9-.2-4.9-.8-9-1.3-9s-.9 4-.9 9m6.8-5.9c.4 2.7.6 2.9 1.4 1.4.7-1.2.6-2.1-.4-3.2-1.3-1.2-1.4-1-1 1.8M76 128v9h2.8c2.3-.1 2.4-.2 1-1.1-1.5-.8-1.8-2.4-1.8-8.9 0-4.7-.4-8-1-8s-1 3.7-1 9m32.3-3c0 3.6.2 5 .4 3.2.2-1.7.2-4.7 0-6.5-.2-1.7-.4-.3-.4 3.3m-49.6-3.7c-1 2.6-1.1 2.4 3.4 6.8 2.9 2.8 3.9 4.6 3.6 6-.3 1-.1 1.7.4 1.3 2-1.2.8-5.6-2.5-8.7-1.9-1.8-3.6-4.1-3.8-5.2-.3-1.9-.4-1.9-1.1-.2m35.4-.2c.1.8 3.5 4.5 7.5 8.3 4.1 3.8 7.3 6.3 7.3 5.5-.1-.8-3.5-4.5-7.5-8.3-4.1-3.8-7.3-6.3-7.3-5.5m-46.5 8.4c.9 1.4 1.4 3.4 1.1 4.5-.7 2.6-.1 2.6 1.3 0 1.2-2.3 0-5.4-2.5-6.4-1.3-.5-1.3-.2.1 1.9m46.1 4.9c-.4 1-.5 2.1-.2 2.4.9.9 1.7-.6 1.3-2.5-.3-1.7-.4-1.7-1.1.1"/><path fill-opacity=".4" d="M7.4 125.5c0 6.6.1 9.2.3 5.7.2-3.4.2-8.8 0-12-.2-3.1-.3-.3-.3 6.3"/><path fill-opacity=".1" d="M107.2 124.5c0 1.6.2 2.2.5 1.2.2-.9.2-2.3 0-3-.3-.6-.5.1-.5 1.8m-2.2 4.9c0 .2.8 1 1.8 1.7 1.5 1.3 1.6 1.2.3-.4s-2.1-2.1-2.1-1.3M7.9 142.7c-1.3 1.6-1.2 1.7.4.4.9-.7 1.7-1.5 1.7-1.7 0-.8-.8-.3-2.1 1.3"/><path fill-opacity=".5" d="M21.3 127c0 4.1.2 5.8.4 3.7.2-2 .2-5.4 0-7.5-.2-2-.4-.3-.4 3.8m4.5-.3c.6.2 1.8.2 2.5 0 .6-.3.1-.5-1.3-.5s-1.9.2-1.2.5m54 0c.6.2 1.8.2 2.5 0 .6-.3.1-.5-1.3-.5s-1.9.2-1.2.5m29.4 8.3c0 1.4.2 1.9.5 1.2.2-.6.2-1.8 0-2.5-.3-.6-.5-.1-.5 1.3"/></svg>